<svg id="Capa_1" enable-background="new 0 0 512 512" height="512" viewBox="0 0 512 512" width="512" xmlns="http://www.w3.org/2000/svg"><g><circle cx="256" cy="256" fill="#ffda8f" r="246"/><path d="m439.132 198.806c4.74-20.13-5.542-41.479-24.235-50.324-9.568-4.527-16.432-13.134-18.717-23.47-4.463-20.193-22.99-34.966-43.669-34.825-10.585.072-20.504-4.704-27.047-13.025-12.783-16.256-35.885-21.529-54.455-12.429-9.505 4.658-20.514 4.658-30.019 0-18.57-9.1-41.672-3.827-54.455 12.429-6.543 8.321-16.461 13.098-27.047 13.025-20.68-.142-39.206 14.632-43.669 34.825-2.285 10.336-9.148 18.943-18.717 23.47-18.693 8.845-28.974 30.194-24.235 50.324 2.426 10.304-.024 21.036-6.68 29.267-13.004 16.08-13.004 39.775 0 55.855 6.656 8.231 9.106 18.963 6.68 29.267-4.74 20.13 5.542 41.479 24.234 50.324 9.569 4.528 16.432 13.134 18.717 23.47 4.464 20.193 22.99 34.967 43.67 34.825 10.585-.073 20.503 4.704 27.046 13.025 12.783 16.256 35.885 21.53 54.455 12.429 9.505-4.658 20.514-4.658 30.019 0 18.57 9.1 41.672 3.827 54.455-12.429 6.543-8.321 16.461-13.098 27.047-13.025 20.68.142 39.206-14.633 43.669-34.825 2.285-10.336 9.148-18.943 18.717-23.47 18.693-8.845 28.974-30.194 24.235-50.324-2.426-10.304.023-21.036 6.68-29.267 13.004-16.08 13.004-39.775 0-55.855-6.655-8.231-9.105-18.964-6.679-29.267z" fill="#fff3da"/><circle id="XMLID_1038_" cx="215.798" cy="161.304" fill="#ff9eb1" r="37.68"/><circle id="XMLID_1037_" cx="296.202" cy="354.469" fill="#ff9eb1" r="37.68"/><circle id="XMLID_1039_" cx="346.32" cy="218.32" fill="#ff9eb1" r="37.68"/><circle id="XMLID_1040_" cx="161.347" cy="293.807" fill="#ff9eb1" r="37.68"/><g fill="#ffda8f"><path d="m377.794 324.025h-13.445c-5.241 0-9.489-4.248-9.489-9.489v-13.445c0-5.241 4.248-9.489 9.489-9.489h13.445c5.241 0 9.489 4.248 9.489 9.489v13.445c0 5.24-4.248 9.489-9.489 9.489z"/><path d="m309.776 151.028h-13.445c-5.241 0-9.489-4.248-9.489-9.489v-13.445c0-5.241 4.248-9.489 9.489-9.489h13.445c5.241 0 9.489 4.248 9.489 9.489v13.445c0 5.241-4.249 9.489-9.489 9.489z"/><path d="m206.308 384h-13.445c-5.241 0-9.489-4.248-9.489-9.489v-13.445c0-5.241 4.248-9.489 9.489-9.489h13.445c5.241 0 9.489 4.248 9.489 9.489v13.445c.001 5.241-4.248 9.489-9.489 9.489z"/><path d="m223.135 255.353h-12.049c-5.626 0-10.187-4.561-10.187-10.187v-12.049c0-5.626 4.561-10.187 10.187-10.187h12.049c5.626 0 10.187 4.561 10.187 10.187v12.049c0 5.626-4.561 10.187-10.187 10.187z"/></g><path d="m286.413 242.111c0-9.638-4.285-18.275-11.053-24.111-1.663-1.434-4.121-1.434-5.784 0-6.768 5.837-11.053 14.473-11.053 24.111s4.285 18.275 11.053 24.111c1.663 1.434 4.121 1.434 5.784 0 6.767-5.836 11.053-14.472 11.053-24.111z" fill="#eaf5bc"/><path d="m250.519 317.674c6.815-6.815 9.892-15.952 9.233-24.865-.162-2.19-1.9-3.928-4.09-4.09-8.913-.659-18.05 2.418-24.865 9.233s-9.892 15.952-9.233 24.865c.162 2.19 1.899 3.928 4.09 4.09 8.913.659 18.05-2.418 24.865-9.233z" fill="#eaf5bc"/><path d="m143.408 195.595c-6.815-6.815-15.952-9.892-24.865-9.233-2.19.162-3.928 1.899-4.09 4.09-.659 8.913 2.418 18.05 9.233 24.865s15.952 9.892 24.865 9.233c2.19-.162 3.928-1.9 4.09-4.09.659-8.913-2.418-18.049-9.233-24.865z" fill="#eaf5bc"/><g><path d="m256 512c-68.38 0-132.667-26.628-181.02-74.981-48.351-48.352-74.98-112.639-74.98-181.019s26.629-132.667 74.98-181.019c48.353-48.353 112.64-74.981 181.02-74.981s132.667 26.628 181.02 74.981c48.351 48.352 74.98 112.639 74.98 181.019s-26.629 132.667-74.98 181.019c-48.353 48.353-112.64 74.981-181.02 74.981zm0-492c-63.038 0-122.303 24.548-166.877 69.123-44.575 44.574-69.123 103.839-69.123 166.877s24.548 122.303 69.123 166.877c44.574 44.575 103.839 69.123 166.877 69.123s122.303-24.548 166.877-69.123c44.575-44.574 69.123-103.839 69.123-166.877s-24.548-122.303-69.123-166.877c-44.574-44.575-103.839-69.123-166.877-69.123z" fill="#ffa96b"/></g></g></svg>